<svg width="1300" height="859" viewBox="0 0 1300 859" fill="none" xmlns="http://www.w3.org/2000/svg">
<g filter="url(#filter0_b_79_210738)">
<g clip-path="url(#clip0_79_210738)">
<rect x="10" y="10.1409" width="1280" height="838" rx="20" fill="white"/>
<path d="M31.0007 34.8347C28.6994 34.8347 26.834 32.9693 26.834 30.668C26.834 28.3668 28.6994 26.5013 31.0007 26.5013C33.3019 26.5013 35.1673 28.3668 35.1673 30.668C35.1673 32.9693 33.3019 34.8347 31.0007 34.8347Z" fill="#E11D48"/>
<path d="M46.0007 34.8347C43.6994 34.8347 41.834 32.9693 41.834 30.668C41.834 28.3668 43.6994 26.5013 46.0007 26.5013C48.3019 26.5013 50.1673 28.3668 50.1673 30.668C50.1673 32.9693 48.3019 34.8347 46.0007 34.8347Z" fill="#FBBF24"/>
<path d="M61.0007 34.8347C58.6994 34.8347 56.834 32.9693 56.834 30.668C56.834 28.3668 58.6994 26.5013 61.0007 26.5013C63.3019 26.5013 65.1673 28.3668 65.1673 30.668C65.1673 32.9693 63.3019 34.8347 61.0007 34.8347Z" fill="#22C55E"/>
<path d="M1231.76 30.6409L1236.71 35.5909C1236.8 35.6832 1236.88 35.7935 1236.93 35.9155C1236.98 36.0375 1237.01 36.1687 1237.01 36.3015C1237.01 36.4343 1236.99 36.566 1236.94 36.6889C1236.89 36.8118 1236.81 36.9234 1236.72 37.0173C1236.63 37.1112 1236.51 37.1855 1236.39 37.2357C1236.27 37.286 1236.14 37.3113 1236 37.3102C1235.87 37.309 1235.74 37.2814 1235.62 37.229C1235.5 37.1766 1235.39 37.1004 1235.29 37.0049L1229.64 31.3479C1229.45 31.1604 1229.34 30.9061 1229.34 30.6409C1229.34 30.3758 1229.45 30.1215 1229.64 29.9339L1235.29 24.2769C1235.48 24.0948 1235.73 23.994 1236 23.9963C1236.26 23.9985 1236.51 24.1037 1236.7 24.2891C1236.88 24.4745 1236.99 24.7253 1236.99 24.9875C1236.99 25.2497 1236.89 25.5023 1236.71 25.6909L1231.76 30.6409Z" fill="#94A3B8"/>
<path d="M1263.31 30.7119L1258.36 25.7619C1258.18 25.5732 1258.08 25.3206 1258.08 25.0584C1258.09 24.7963 1258.19 24.5454 1258.38 24.36C1258.56 24.1746 1258.81 24.0695 1259.08 24.0672C1259.34 24.0649 1259.59 24.1657 1259.78 24.3479L1265.44 30.0049C1265.62 30.1924 1265.73 30.4467 1265.73 30.7119C1265.73 30.977 1265.62 31.2313 1265.44 31.4189L1259.78 37.0759C1259.59 37.258 1259.34 37.3588 1259.08 37.3565C1258.81 37.3542 1258.56 37.2491 1258.38 37.0637C1258.19 36.8783 1258.09 36.6274 1258.08 36.3653C1258.08 36.1031 1258.18 35.8505 1258.36 35.6618L1263.31 30.7119Z" fill="#475569"/>
<rect x="363.18" y="18.1409" width="575.888" height="25" rx="5" fill="#F1F5F9"/>
<path d="M627.604 28.801V29.6331H624.176V28.801H627.604ZM625.336 27.26H626.42V33.5706C626.42 33.7854 626.453 33.9475 626.52 34.0569C626.586 34.1663 626.672 34.2385 626.777 34.2737C626.883 34.3088 626.996 34.3264 627.117 34.3264C627.207 34.3264 627.301 34.3186 627.398 34.303C627.5 34.2834 627.576 34.2678 627.627 34.2561L627.633 35.1409C627.547 35.1682 627.434 35.1936 627.293 35.217C627.156 35.2444 626.99 35.2581 626.795 35.2581C626.529 35.2581 626.285 35.2053 626.062 35.0999C625.84 34.9944 625.662 34.8186 625.529 34.5725C625.4 34.3225 625.336 33.9866 625.336 33.5647V27.26ZM629.959 29.7971V35.1409H628.875V28.801H629.93L629.959 29.7971ZM631.939 28.7659L631.934 29.7737C631.844 29.7542 631.758 29.7424 631.676 29.7385C631.598 29.7307 631.508 29.7268 631.406 29.7268C631.156 29.7268 630.936 29.7659 630.744 29.844C630.553 29.9221 630.391 30.0315 630.258 30.1721C630.125 30.3127 630.02 30.4807 629.941 30.676C629.867 30.8674 629.818 31.0784 629.795 31.3088L629.49 31.4846C629.49 31.1018 629.527 30.7424 629.602 30.4065C629.68 30.0706 629.799 29.7737 629.959 29.5159C630.119 29.2542 630.322 29.051 630.568 28.9065C630.818 28.7581 631.115 28.6838 631.459 28.6838C631.537 28.6838 631.627 28.6936 631.729 28.7131C631.83 28.7288 631.9 28.7463 631.939 28.7659ZM636.445 34.0569V30.7932C636.445 30.5432 636.395 30.3264 636.293 30.1428C636.195 29.9553 636.047 29.8108 635.848 29.7092C635.648 29.6077 635.402 29.5569 635.109 29.5569C634.836 29.5569 634.596 29.6038 634.389 29.6975C634.186 29.7913 634.025 29.9143 633.908 30.0667C633.795 30.219 633.738 30.3831 633.738 30.5588H632.654C632.654 30.3323 632.713 30.1077 632.83 29.885C632.947 29.6624 633.115 29.4612 633.334 29.2815C633.557 29.0979 633.822 28.9534 634.131 28.8479C634.443 28.7385 634.791 28.6838 635.174 28.6838C635.635 28.6838 636.041 28.762 636.393 28.9182C636.748 29.0745 637.025 29.3108 637.225 29.6272C637.428 29.9397 637.529 30.3323 637.529 30.8049V33.7581C637.529 33.969 637.547 34.1936 637.582 34.4319C637.621 34.6702 637.678 34.8752 637.752 35.0471V35.1409H636.621C636.566 35.0159 636.523 34.8499 636.492 34.6428C636.461 34.4319 636.445 34.2366 636.445 34.0569ZM636.633 31.2971L636.645 32.0588H635.549C635.24 32.0588 634.965 32.0842 634.723 32.135C634.48 32.1819 634.277 32.2542 634.113 32.3518C633.949 32.4495 633.824 32.5725 633.738 32.7209C633.652 32.8655 633.609 33.0354 633.609 33.2307C633.609 33.4299 633.654 33.6116 633.744 33.7756C633.834 33.9397 633.969 34.0706 634.148 34.1682C634.332 34.262 634.557 34.3088 634.822 34.3088C635.154 34.3088 635.447 34.2385 635.701 34.0979C635.955 33.9573 636.156 33.7854 636.305 33.5823C636.457 33.3792 636.539 33.1819 636.551 32.9905L637.014 33.512C636.986 33.676 636.912 33.8577 636.791 34.0569C636.67 34.2561 636.508 34.4475 636.305 34.6311C636.105 34.8108 635.867 34.9612 635.59 35.0823C635.316 35.1995 635.008 35.2581 634.664 35.2581C634.234 35.2581 633.857 35.1741 633.533 35.0061C633.213 34.8381 632.963 34.6135 632.783 34.3323C632.607 34.0471 632.52 33.7288 632.52 33.3772C632.52 33.0374 632.586 32.7385 632.719 32.4807C632.852 32.219 633.043 32.0022 633.293 31.8303C633.543 31.6545 633.844 31.5217 634.195 31.4319C634.547 31.342 634.939 31.2971 635.373 31.2971H636.633ZM640.324 26.1409V35.1409H639.234V26.1409H640.324ZM644.197 28.801L641.432 31.76L639.885 33.3655L639.797 32.2112L640.904 30.887L642.873 28.801H644.197ZM643.207 35.1409L640.945 32.1174L641.508 31.1506L644.484 35.1409H643.207ZM645.029 32.0413V31.9065C645.029 31.4495 645.096 31.0256 645.229 30.635C645.361 30.2405 645.553 29.8987 645.803 29.6096C646.053 29.3167 646.355 29.0901 646.711 28.9299C647.066 28.7659 647.465 28.6838 647.906 28.6838C648.352 28.6838 648.752 28.7659 649.107 28.9299C649.467 29.0901 649.771 29.3167 650.021 29.6096C650.275 29.8987 650.469 30.2405 650.602 30.635C650.734 31.0256 650.801 31.4495 650.801 31.9065V32.0413C650.801 32.4983 650.734 32.9221 650.602 33.3127C650.469 33.7034 650.275 34.0452 650.021 34.3381C649.771 34.6272 649.469 34.8538 649.113 35.0178C648.762 35.178 648.363 35.2581 647.918 35.2581C647.473 35.2581 647.072 35.178 646.717 35.0178C646.361 34.8538 646.057 34.6272 645.803 34.3381C645.553 34.0452 645.361 33.7034 645.229 33.3127C645.096 32.9221 645.029 32.4983 645.029 32.0413ZM646.113 31.9065V32.0413C646.113 32.3577 646.15 32.6565 646.225 32.9377C646.299 33.2151 646.41 33.4612 646.559 33.676C646.711 33.8909 646.9 34.0608 647.127 34.1858C647.354 34.3069 647.617 34.3674 647.918 34.3674C648.215 34.3674 648.475 34.3069 648.697 34.1858C648.924 34.0608 649.111 33.8909 649.26 33.676C649.408 33.4612 649.52 33.2151 649.594 32.9377C649.672 32.6565 649.711 32.3577 649.711 32.0413V31.9065C649.711 31.594 649.672 31.2991 649.594 31.0217C649.52 30.7405 649.406 30.4924 649.254 30.2776C649.105 30.0588 648.918 29.887 648.691 29.762C648.469 29.637 648.207 29.5745 647.906 29.5745C647.609 29.5745 647.348 29.637 647.121 29.762C646.898 29.887 646.711 30.0588 646.559 30.2776C646.41 30.4924 646.299 30.7405 646.225 31.0217C646.15 31.2991 646.113 31.594 646.113 31.9065ZM653.244 29.7971V35.1409H652.16V28.801H653.215L653.244 29.7971ZM655.225 28.7659L655.219 29.7737C655.129 29.7542 655.043 29.7424 654.961 29.7385C654.883 29.7307 654.793 29.7268 654.691 29.7268C654.441 29.7268 654.221 29.7659 654.029 29.844C653.838 29.9221 653.676 30.0315 653.543 30.1721C653.41 30.3127 653.305 30.4807 653.227 30.676C653.152 30.8674 653.104 31.0784 653.08 31.3088L652.775 31.4846C652.775 31.1018 652.812 30.7424 652.887 30.4065C652.965 30.0706 653.084 29.7737 653.244 29.5159C653.404 29.2542 653.607 29.051 653.854 28.9065C654.104 28.7581 654.4 28.6838 654.744 28.6838C654.822 28.6838 654.912 28.6936 655.014 28.7131C655.115 28.7288 655.186 28.7463 655.225 28.7659ZM655.518 34.5667C655.518 34.3831 655.574 34.2288 655.688 34.1038C655.805 33.9749 655.973 33.9104 656.191 33.9104C656.41 33.9104 656.576 33.9749 656.689 34.1038C656.807 34.2288 656.865 34.3831 656.865 34.5667C656.865 34.7463 656.807 34.8987 656.689 35.0237C656.576 35.1487 656.41 35.2112 656.191 35.2112C655.973 35.2112 655.805 35.1487 655.688 35.0237C655.574 34.8987 655.518 34.7463 655.518 34.5667ZM662.402 34.0569V30.7932C662.402 30.5432 662.352 30.3264 662.25 30.1428C662.152 29.9553 662.004 29.8108 661.805 29.7092C661.605 29.6077 661.359 29.5569 661.066 29.5569C660.793 29.5569 660.553 29.6038 660.346 29.6975C660.143 29.7913 659.982 29.9143 659.865 30.0667C659.752 30.219 659.695 30.3831 659.695 30.5588H658.611C658.611 30.3323 658.67 30.1077 658.787 29.885C658.904 29.6624 659.072 29.4612 659.291 29.2815C659.514 29.0979 659.779 28.9534 660.088 28.8479C660.4 28.7385 660.748 28.6838 661.131 28.6838C661.592 28.6838 661.998 28.762 662.35 28.9182C662.705 29.0745 662.982 29.3108 663.182 29.6272C663.385 29.9397 663.486 30.3323 663.486 30.8049V33.7581C663.486 33.969 663.504 34.1936 663.539 34.4319C663.578 34.6702 663.635 34.8752 663.709 35.0471V35.1409H662.578C662.523 35.0159 662.48 34.8499 662.449 34.6428C662.418 34.4319 662.402 34.2366 662.402 34.0569ZM662.59 31.2971L662.602 32.0588H661.506C661.197 32.0588 660.922 32.0842 660.68 32.135C660.438 32.1819 660.234 32.2542 660.07 32.3518C659.906 32.4495 659.781 32.5725 659.695 32.7209C659.609 32.8655 659.566 33.0354 659.566 33.2307C659.566 33.4299 659.611 33.6116 659.701 33.7756C659.791 33.9397 659.926 34.0706 660.105 34.1682C660.289 34.262 660.514 34.3088 660.779 34.3088C661.111 34.3088 661.404 34.2385 661.658 34.0979C661.912 33.9573 662.113 33.7854 662.262 33.5823C662.414 33.3792 662.496 33.1819 662.508 32.9905L662.971 33.512C662.943 33.676 662.869 33.8577 662.748 34.0569C662.627 34.2561 662.465 34.4475 662.262 34.6311C662.062 34.8108 661.824 34.9612 661.547 35.0823C661.273 35.1995 660.965 35.2581 660.621 35.2581C660.191 35.2581 659.814 35.1741 659.49 35.0061C659.17 34.8381 658.92 34.6135 658.74 34.3323C658.564 34.0471 658.477 33.7288 658.477 33.3772C658.477 33.0374 658.543 32.7385 658.676 32.4807C658.809 32.219 659 32.0022 659.25 31.8303C659.5 31.6545 659.801 31.5217 660.152 31.4319C660.504 31.342 660.896 31.2971 661.33 31.2971H662.59ZM666.275 30.0198V37.5784H665.186V28.801H666.182L666.275 30.0198ZM670.547 31.9182V32.0413C670.547 32.5022 670.492 32.9299 670.383 33.3245C670.273 33.7151 670.113 34.0549 669.902 34.344C669.695 34.6331 669.439 34.8577 669.135 35.0178C668.83 35.178 668.48 35.2581 668.086 35.2581C667.684 35.2581 667.328 35.1917 667.02 35.0588C666.711 34.926 666.449 34.7327 666.234 34.4788C666.02 34.2249 665.848 33.9202 665.719 33.5647C665.594 33.2092 665.508 32.8088 665.461 32.3635V31.7073C665.508 31.2385 665.596 30.8186 665.725 30.4475C665.854 30.0764 666.023 29.76 666.234 29.4983C666.449 29.2327 666.709 29.0315 667.014 28.8948C667.318 28.7542 667.67 28.6838 668.068 28.6838C668.467 28.6838 668.82 28.762 669.129 28.9182C669.438 29.0706 669.697 29.2893 669.908 29.5745C670.119 29.8596 670.277 30.2014 670.383 30.5999C670.492 30.9944 670.547 31.4338 670.547 31.9182ZM669.457 32.0413V31.9182C669.457 31.6018 669.424 31.3049 669.357 31.0276C669.291 30.7463 669.188 30.5002 669.047 30.2893C668.91 30.0745 668.734 29.9065 668.52 29.7854C668.305 29.6604 668.049 29.5979 667.752 29.5979C667.479 29.5979 667.24 29.6448 667.037 29.7385C666.838 29.8323 666.668 29.9592 666.527 30.1194C666.387 30.2756 666.271 30.4553 666.182 30.6584C666.096 30.8577 666.031 31.0647 665.988 31.2795V32.7971C666.066 33.0706 666.176 33.3284 666.316 33.5706C666.457 33.8088 666.645 34.0022 666.879 34.1506C667.113 34.2952 667.408 34.3674 667.764 34.3674C668.057 34.3674 668.309 34.3069 668.52 34.1858C668.734 34.0608 668.91 33.8909 669.047 33.676C669.188 33.4612 669.291 33.2151 669.357 32.9377C669.424 32.6565 669.457 32.3577 669.457 32.0413ZM673.014 30.0198V37.5784H671.924V28.801H672.92L673.014 30.0198ZM677.285 31.9182V32.0413C677.285 32.5022 677.23 32.9299 677.121 33.3245C677.012 33.7151 676.852 34.0549 676.641 34.344C676.434 34.6331 676.178 34.8577 675.873 35.0178C675.568 35.178 675.219 35.2581 674.824 35.2581C674.422 35.2581 674.066 35.1917 673.758 35.0588C673.449 34.926 673.188 34.7327 672.973 34.4788C672.758 34.2249 672.586 33.9202 672.457 33.5647C672.332 33.2092 672.246 32.8088 672.199 32.3635V31.7073C672.246 31.2385 672.334 30.8186 672.463 30.4475C672.592 30.0764 672.762 29.76 672.973 29.4983C673.188 29.2327 673.447 29.0315 673.752 28.8948C674.057 28.7542 674.408 28.6838 674.807 28.6838C675.205 28.6838 675.559 28.762 675.867 28.9182C676.176 29.0706 676.436 29.2893 676.646 29.5745C676.857 29.8596 677.016 30.2014 677.121 30.5999C677.23 30.9944 677.285 31.4338 677.285 31.9182ZM676.195 32.0413V31.9182C676.195 31.6018 676.162 31.3049 676.096 31.0276C676.029 30.7463 675.926 30.5002 675.785 30.2893C675.648 30.0745 675.473 29.9065 675.258 29.7854C675.043 29.6604 674.787 29.5979 674.49 29.5979C674.217 29.5979 673.979 29.6448 673.775 29.7385C673.576 29.8323 673.406 29.9592 673.266 30.1194C673.125 30.2756 673.01 30.4553 672.92 30.6584C672.834 30.8577 672.77 31.0647 672.727 31.2795V32.7971C672.805 33.0706 672.914 33.3284 673.055 33.5706C673.195 33.8088 673.383 34.0022 673.617 34.1506C673.852 34.2952 674.146 34.3674 674.502 34.3674C674.795 34.3674 675.047 34.3069 675.258 34.1858C675.473 34.0608 675.648 33.8909 675.785 33.676C675.926 33.4612 676.029 33.2151 676.096 32.9377C676.162 32.6565 676.195 32.3577 676.195 32.0413Z" fill="#94A3B8"/>
<rect x="10" y="51.1409" width="1280" height="797" fill="#DBEAFE"/>
<path d="M10 52.2035H224.405V848.141H10V52.2035Z" fill="#BFDBFE"/>
<path d="M35.7285 127.653C35.7285 120.61 41.4881 114.901 48.5928 114.901H185.812C192.917 114.901 198.677 120.61 198.677 127.653C198.677 134.696 192.917 140.405 185.812 140.405H48.5928C41.4881 140.405 35.7285 134.696 35.7285 127.653Z" fill="#93C5FD"/>
<path d="M87.1855 216.917C87.1855 213.395 90.0653 210.541 93.6177 210.541H200.82C204.373 210.541 207.253 213.395 207.253 216.917C207.253 220.438 204.373 223.293 200.82 223.293H93.6177C90.0653 223.293 87.1855 220.438 87.1855 216.917Z" fill="white"/>
<path d="M87.1855 284.928C87.1855 281.406 90.0653 278.552 93.6177 278.552H167.588C171.14 278.552 174.02 281.406 174.02 284.928C174.02 288.449 171.14 291.304 167.588 291.304H93.6177C90.0653 291.304 87.1855 288.449 87.1855 284.928Z" fill="white"/>
<path d="M87.1855 352.938C87.1855 349.417 90.0653 346.562 93.6177 346.562H185.812C189.364 346.562 192.244 349.417 192.244 352.938C192.244 356.46 189.364 359.314 185.812 359.314H93.6177C90.0653 359.314 87.1855 356.46 87.1855 352.938Z" fill="white"/>
<path fill-rule="evenodd" clip-rule="evenodd" d="M52.8809 230.732C60.5778 230.732 66.8173 224.547 66.8173 216.917C66.8173 209.287 60.5778 203.102 52.8809 203.102C45.1841 203.102 38.9446 209.287 38.9446 216.917C38.9446 224.547 45.1841 230.732 52.8809 230.732ZM52.8809 233.92C62.354 233.92 70.0334 226.307 70.0334 216.917C70.0334 207.527 62.354 199.914 52.8809 199.914C43.4079 199.914 35.7285 207.527 35.7285 216.917C35.7285 226.307 43.4079 233.92 52.8809 233.92Z" fill="#93C5FD"/>
<path d="M293.016 127.653C293.016 122.958 296.855 119.151 301.592 119.151H425.947C430.683 119.151 434.523 122.958 434.523 127.653C434.523 132.348 430.683 136.154 425.947 136.154H301.592C296.855 136.154 293.016 132.348 293.016 127.653Z" fill="#BFDBFE"/>
<path fill-rule="evenodd" clip-rule="evenodd" d="M520.821 470.427C520.884 464.366 525.742 459.205 531.985 459.205C535.817 459.205 538.636 461.085 540.435 462.856C540.936 463.349 541.366 463.84 541.726 464.294C542.086 463.84 542.516 463.349 543.017 462.856C544.815 461.085 547.634 459.205 551.467 459.205C557.71 459.205 562.568 464.366 562.63 470.427L562.63 470.428C562.749 482.249 553.167 490.428 543.535 496.909C543.001 497.269 542.371 497.461 541.726 497.461C541.081 497.461 540.45 497.269 539.917 496.909C530.284 490.428 520.701 482.249 520.821 470.427L520.821 470.427ZM543.162 467.892C542.889 468.429 542.333 468.769 541.726 468.769C541.118 468.769 540.563 468.429 540.29 467.892C540.289 467.891 540.289 467.89 540.288 467.888C540.286 467.884 540.282 467.878 540.278 467.869C540.275 467.865 540.273 467.86 540.27 467.854C540.252 467.82 540.221 467.766 540.179 467.693C540.095 467.547 539.964 467.33 539.785 467.065C539.426 466.533 538.886 465.823 538.169 465.118C536.729 463.7 534.678 462.393 531.985 462.393C527.624 462.393 524.083 466.026 524.037 470.46M543.162 467.892C543.163 467.891 543.163 467.89 543.164 467.888C543.167 467.882 543.173 467.871 543.182 467.854C543.2 467.82 543.23 467.766 543.272 467.693C543.357 467.547 543.488 467.33 543.667 467.065C544.026 466.533 544.566 465.823 545.282 465.118C546.723 463.7 548.774 462.393 551.467 462.393C555.828 462.393 559.368 466.026 559.414 470.459C559.515 480.421 551.444 487.734 541.727 494.272L541.726 494.273L541.724 494.272C532.007 487.734 523.936 480.421 524.037 470.46" fill="white"/>
<path d="M293.016 478.333C293.016 473.638 296.855 469.832 301.592 469.832H359.481C364.218 469.832 368.057 473.638 368.057 478.333C368.057 483.028 364.218 486.834 359.481 486.834H301.592C296.855 486.834 293.016 483.028 293.016 478.333Z" fill="#BFDBFE"/>
<path d="M385.209 478.333C385.209 473.638 389.049 469.832 393.785 469.832H490.268C495.004 469.832 498.844 473.638 498.844 478.333C498.844 483.028 495.004 486.834 490.268 486.834H393.785C389.049 486.834 385.209 483.028 385.209 478.333Z" fill="#BFDBFE"/>
<path d="M293.016 561.221C293.016 557.7 295.895 554.845 299.448 554.845H389.498C393.05 554.845 395.93 557.7 395.93 561.221C395.93 564.742 393.05 567.597 389.498 567.597H299.448C295.895 567.597 293.016 564.742 293.016 561.221Z" fill="white"/>
<path d="M293.016 590.976C293.016 587.454 295.895 584.6 299.448 584.6H437.739C441.292 584.6 444.171 587.454 444.171 590.976C444.171 594.497 441.292 597.352 437.739 597.352H299.448C295.895 597.352 293.016 594.497 293.016 590.976Z" fill="white"/>
<path d="M413.082 561.221C413.082 557.7 415.962 554.845 419.514 554.845H526.717C530.269 554.845 533.149 557.7 533.149 561.221C533.149 564.742 530.269 567.597 526.717 567.597H419.514C415.962 567.597 413.082 564.742 413.082 561.221Z" fill="white"/>
<path d="M293.016 210.541C293.016 207.019 295.895 204.165 299.448 204.165H389.498C393.05 204.165 395.93 207.019 395.93 210.541C395.93 214.062 393.05 216.917 389.498 216.917H299.448C295.895 216.917 293.016 214.062 293.016 210.541Z" fill="white"/>
<path d="M293.016 240.295C293.016 236.774 295.895 233.919 299.448 233.919H521.357C524.91 233.919 527.789 236.774 527.789 240.295C527.789 243.817 524.91 246.671 521.357 246.671H299.448C295.895 246.671 293.016 243.817 293.016 240.295Z" fill="white"/>
<path d="M413.082 210.541C413.082 207.019 415.962 204.165 419.514 204.165H663.936C667.489 204.165 670.368 207.019 670.368 210.541C670.368 214.062 667.489 216.917 663.936 216.917H419.514C415.962 216.917 413.082 214.062 413.082 210.541Z" fill="white"/>
<path fill-rule="evenodd" clip-rule="evenodd" d="M67.8896 271.113H40.0169V298.742H67.8896V271.113ZM36.8008 267.925V301.93H71.1056V267.925H36.8008Z" fill="#60A5FA"/>
<g clip-path="url(#clip1_79_210738)">
<rect x="752.914" y="127.653" width="214.405" height="291.171" rx="20" fill="white"/>
<path d="M895.735 419.075C895.735 492.755 835.979 552.484 762.265 552.484C688.552 552.484 628.795 492.755 628.795 419.075C628.795 345.395 688.552 285.666 762.265 285.666C835.979 285.666 895.735 345.395 895.735 419.075Z" fill="#FACC15"/>
<path fill-rule="evenodd" clip-rule="evenodd" d="M997.083 241.051L927.344 171.92L857.604 241.051L927.344 310.181L997.083 241.051ZM927.344 165.909L851.54 241.051L927.344 316.193L1003.15 241.051L927.344 165.909Z" fill="#BFDBFE"/>
</g>
<path d="M53.9532 338.061L71.1056 367.51H36.8008L53.9532 338.061Z" fill="#93C5FD"/>
<rect x="1001.62" y="127.653" width="214.405" height="214.659" rx="20" fill="white"/>
<path fill-rule="evenodd" clip-rule="evenodd" d="M1098.07 287.708C1119.45 287.708 1136.63 270.689 1136.63 249.874C1136.63 229.058 1119.45 212.04 1098.07 212.04C1076.7 212.04 1059.52 229.058 1059.52 249.874C1059.52 270.689 1076.7 287.708 1098.07 287.708ZM1098.07 298.335C1125.29 298.335 1147.35 276.638 1147.35 249.874C1147.35 223.11 1125.29 201.413 1098.07 201.413C1070.86 201.413 1048.79 223.11 1048.79 249.874C1048.79 276.638 1070.86 298.335 1098.07 298.335Z" fill="#BFDBFE"/>
<path d="M1120.47 234.535L1134.65 182.087L1173.38 220.481L1120.47 234.535Z" fill="#FACC15"/>
<g clip-path="url(#clip2_79_210738)">
<rect x="752.914" y="452.829" width="214.405" height="325.176" rx="20" fill="white"/>
<path fill-rule="evenodd" clip-rule="evenodd" d="M953.92 819.449C1014.01 819.449 1062.73 771.158 1062.73 711.588C1062.73 652.018 1014.01 603.727 953.92 603.727C893.825 603.727 845.109 652.018 845.109 711.588C845.109 771.158 893.825 819.449 953.92 819.449ZM953.92 830.076C1019.93 830.076 1073.45 777.027 1073.45 711.588C1073.45 646.149 1019.93 593.101 953.92 593.101C887.905 593.101 834.389 646.149 834.389 711.588C834.389 777.027 887.905 830.076 953.92 830.076Z" fill="#FACC15"/>
<path d="M865.478 549.772C865.478 569.859 848.919 586.143 828.493 586.143C808.067 586.143 791.508 569.859 791.508 549.772C791.508 529.685 808.067 513.401 828.493 513.401C848.919 513.401 865.478 529.685 865.478 549.772Z" fill="#BFDBFE"/>
<path fill-rule="evenodd" clip-rule="evenodd" d="M828.493 582.955C847.167 582.955 862.262 568.075 862.262 549.772C862.262 531.469 847.167 516.589 828.493 516.589C809.819 516.589 794.724 531.469 794.724 549.772C794.724 568.075 809.819 582.955 828.493 582.955ZM828.493 586.143C848.919 586.143 865.478 569.859 865.478 549.772C865.478 529.685 848.919 513.401 828.493 513.401C808.067 513.401 791.508 529.685 791.508 549.772C791.508 569.859 808.067 586.143 828.493 586.143Z" fill="#BFDBFE"/>
</g>
<g clip-path="url(#clip3_79_210738)">
<rect x="1001.62" y="376.317" width="214.405" height="363.432" rx="20" fill="white"/>
<path d="M1265.34 638.264C1265.34 664.381 1244.23 685.553 1218.18 685.553C1192.12 685.553 1171.01 664.381 1171.01 638.264C1171.01 612.147 1192.12 590.976 1218.18 590.976C1244.23 590.976 1265.34 612.147 1265.34 638.264Z" fill="white"/>
<path fill-rule="evenodd" clip-rule="evenodd" d="M1218.18 682.365C1242.42 682.365 1262.13 662.654 1262.13 638.264C1262.13 613.874 1242.42 594.164 1218.18 594.164C1193.93 594.164 1174.22 613.874 1174.22 638.264C1174.22 662.654 1193.93 682.365 1218.18 682.365ZM1218.18 685.553C1244.23 685.553 1265.34 664.381 1265.34 638.264C1265.34 612.147 1244.23 590.976 1218.18 590.976C1192.12 590.976 1171.01 612.147 1171.01 638.264C1171.01 664.381 1192.12 685.553 1218.18 685.553Z" fill="#BFDBFE"/>
<path d="M1179.58 504.368C1179.58 539.289 1151.26 567.597 1116.33 567.597C1081.4 567.597 1053.08 539.289 1053.08 504.368C1053.08 469.448 1081.4 441.14 1116.33 441.14C1151.26 441.14 1179.58 469.448 1179.58 504.368Z" fill="#BFDBFE"/>
<path d="M1041.29 626.043L1044.31 634.669L1053.52 634.855L1046.18 640.372L1048.85 649.112L1041.29 643.896L1033.73 649.112L1036.4 640.372L1029.05 634.855L1038.26 634.669L1041.29 626.043Z" fill="#FACC15"/>
<path d="M1085.24 626.043L1088.27 634.669L1097.48 634.855L1090.14 640.372L1092.8 649.112L1085.24 643.896L1077.68 649.112L1080.35 640.372L1073.01 634.855L1082.22 634.669L1085.24 626.043Z" fill="#FACC15"/>
<path d="M1129.2 626.043L1132.22 634.669L1141.43 634.855L1134.09 640.372L1136.76 649.112L1129.2 643.896L1121.63 649.112L1124.3 640.372L1116.96 634.855L1126.17 634.669L1129.2 626.043Z" fill="#FACC15"/>
<path d="M1173.15 626.043L1176.17 634.669L1185.38 634.855L1178.04 640.372L1180.71 649.112L1173.15 643.896L1165.59 649.112L1168.25 640.372L1160.91 634.855L1170.12 634.669L1173.15 626.043Z" fill="#FACC15"/>
<path d="M1217.1 626.043L1220.13 634.669L1229.34 634.855L1222 640.372L1224.66 649.112L1217.1 643.896L1209.54 649.112L1212.21 640.372L1204.87 634.855L1214.08 634.669L1217.1 626.043Z" fill="#FACC15"/>
</g>
</g>
<rect x="5" y="5.14087" width="1290" height="848" rx="25" stroke="white" stroke-opacity="0.07" stroke-width="10"/>
</g>
<defs>
<filter id="filter0_b_79_210738" x="-50" y="-49.8591" width="1400" height="958" filterUnits="userSpaceOnUse" color-interpolation-filters="sRGB">
<feFlood flood-opacity="0" result="BackgroundImageFix"/>
<feGaussianBlur in="BackgroundImageFix" stdDeviation="25"/>
<feComposite in2="SourceAlpha" operator="in" result="effect1_backgroundBlur_79_210738"/>
<feBlend mode="normal" in="SourceGraphic" in2="effect1_backgroundBlur_79_210738" result="shape"/>
</filter>
<clipPath id="clip0_79_210738">
<rect x="10" y="10.1409" width="1280" height="838" rx="20" fill="white"/>
</clipPath>
<clipPath id="clip1_79_210738">
<rect x="752.914" y="127.653" width="214.405" height="291.171" rx="20" fill="white"/>
</clipPath>
<clipPath id="clip2_79_210738">
<rect x="752.914" y="452.829" width="214.405" height="325.176" rx="20" fill="white"/>
</clipPath>
<clipPath id="clip3_79_210738">
<rect x="1001.62" y="376.317" width="214.405" height="363.432" rx="20" fill="white"/>
</clipPath>
</defs>
</svg>
